# Blender v2.92.0 OBJ File: 'crappy.blend'
# www.blender.org
mtllib crappy.mtl
o Station_Cube
v 1.000000 1.000000 -1.000000
v 1.000000 -1.000000 -1.000000
v 1.000000 1.000000 1.000000
v 1.000000 -1.000000 1.000000
v -1.000000 1.000000 -1.000000
v -1.000000 -1.000000 -1.000000
v -1.000000 1.000000 1.000000
v -1.000000 -1.000000 1.000000
v -1.000000 -1.000000 0.000000
v 0.000000 -1.000000 -1.000000
v 1.000000 0.000000 -1.000000
v -1.000000 0.000000 1.000000
v 1.000000 0.000000 1.000000
v -1.000000 0.000000 -1.000000
v 0.000000 1.000000 1.000000
v 1.000000 1.000000 0.000000
v 0.000000 -1.000000 1.000000
v -1.000000 1.000000 0.000000
v 0.000000 1.000000 -1.000000
v 1.000000 -1.000000 0.000000
v 0.000000 0.000000 -2.116776
v 3.004642 0.000000 0.000000
v 0.000000 -5.382401 0.000000
v -0.256332 0.000000 0.000000
v 0.000000 0.000000 0.576784
v 0.000000 2.989628 0.000000
vt 0.625000 0.125000
vt 0.500000 0.250000
vt 0.500000 0.125000
vt 0.375000 0.375000
vt 0.500000 0.500000
vt 0.375000 0.500000
vt 0.375000 0.250000
vt 0.625000 0.375000
vt 0.500000 0.375000
vt 0.375000 0.625000
vt 0.500000 0.750000
vt 0.375000 0.750000
vt 0.125000 0.625000
vt 0.250000 0.750000
vt 0.125000 0.750000
vt 0.250000 0.500000
vt 0.125000 0.500000
vt 0.250000 0.625000
vt 0.500000 0.000000
vt 0.375000 0.125000
vt 0.375000 0.000000
vt 0.375000 0.875000
vt 0.500000 1.000000
vt 0.375000 1.000000
vt 0.625000 0.875000
vt 0.500000 0.875000
vt 0.625000 0.625000
vt 0.750000 0.750000
vt 0.625000 0.750000
vt 0.750000 0.500000
vt 0.875000 0.625000
vt 0.750000 0.625000
vt 0.875000 0.750000
vt 0.625000 1.000000
vt 0.625000 0.500000
vt 0.625000 0.250000
vt 0.500000 0.625000
vt 0.875000 0.500000
vt 0.625000 0.000000
vn -0.6891 -0.5124 0.5124
vn 0.0000 0.0000 -1.0000
vn -0.5974 0.5974 -0.5350
vn 1.0000 0.0000 0.0000
vn 0.0000 -1.0000 0.0000
vn 0.6981 -0.1593 -0.6981
vn -1.0000 0.0000 0.0000
vn 0.0000 0.0000 1.0000
vn -0.3631 -0.3631 0.8581
vn 0.0000 1.0000 0.0000
vn -0.6663 0.3349 -0.6663
vn 0.5974 -0.5974 -0.5350
vn 0.3326 -0.6668 0.6668
vn 0.3326 -0.6668 -0.6668
vn -0.6891 0.5124 0.5124
vn 0.6663 0.3349 -0.6663
vn 0.3631 -0.3631 0.8581
vn 0.6981 -0.1593 0.6981
vn -0.5974 -0.5974 -0.5350
vn 0.6663 0.3349 0.6663
vn -0.6663 0.3349 0.6663
vn 0.3326 0.6668 -0.6668
vn -0.6981 -0.1593 0.6981
vn -0.6981 -0.1593 -0.6981
vn -0.6891 0.5124 -0.5124
vn 0.3631 0.3631 0.8581
vn 0.3326 0.6668 0.6668
vn 0.5974 0.5974 -0.5350
vn -0.6891 -0.5124 -0.5124
vn -0.3631 0.3631 0.8581
usemtl Material
s off
f 18/1/1 14/2/1 24/3/1
f 10/4/2 11/5/2 2/6/2
f 14/2/2 10/4/2 6/7/2
f 14/2/3 19/8/3 21/9/3
f 20/10/4 13/11/4 4/12/4
f 11/5/4 20/10/4 2/6/4
f 9/13/5 17/14/5 8/15/5
f 10/16/5 9/13/5 6/17/5
f 10/16/6 20/10/6 23/18/6
f 12/19/7 9/20/7 8/21/7
f 17/22/8 12/23/8 8/24/8
f 13/11/8 17/22/8 4/12/8
f 13/11/9 15/25/9 25/26/9
f 16/27/10 15/28/10 3/29/10
f 19/30/11 18/31/11 26/32/11
f 18/31/10 7/33/10 15/28/10
f 15/25/8 7/34/8 12/23/8
f 20/10/5 4/12/5 17/14/5
f 16/27/4 3/29/4 13/11/4
f 19/8/2 1/35/2 11/5/2
f 10/4/12 21/9/12 11/5/12
f 14/2/2 5/36/2 19/8/2
f 20/10/13 22/37/13 13/11/13
f 11/5/14 22/37/14 20/10/14
f 11/5/4 1/35/4 16/27/4
f 9/20/15 24/3/15 14/2/15
f 19/30/16 26/32/16 16/27/16
f 19/30/10 5/38/10 18/31/10
usemtl Red
f 15/25/17 12/23/17 25/26/17
f 20/10/18 17/14/18 23/18/18
f 19/30/10 16/27/10 1/35/10
f 14/2/19 21/9/19 10/4/19
f 10/16/5 2/6/5 20/10/5
f 12/19/7 7/39/7 18/1/7
f 16/27/20 26/32/20 15/28/20
usemtl Blue
f 18/31/21 15/28/21 26/32/21
f 11/5/22 16/27/22 22/37/22
f 18/1/7 5/36/7 14/2/7
f 9/13/23 23/18/23 17/14/23
f 10/16/24 23/18/24 9/13/24
f 12/19/25 24/3/25 9/20/25
f 17/22/26 25/26/26 12/23/26
usemtl Green
f 16/27/27 13/11/27 22/37/27
f 19/8/28 11/5/28 21/9/28
f 9/20/7 14/2/7 6/7/7
f 12/19/29 18/1/29 24/3/29
f 13/11/30 25/26/30 17/22/30
f 13/11/8 3/29/8 15/25/8
o Mothership_Cube.003
v -9.027748 -0.000000 -1.084484
v -9.027748 -2.866193 -1.084484
v -9.027748 0.000000 2.212392
v -9.027748 -2.866193 2.212392
v -5.945250 -0.000000 -1.084484
v -5.945250 -2.866193 -1.084484
v -5.945250 0.000000 2.212392
v -5.945250 -2.866193 2.212392
v -9.027748 0.000000 0.563954
v -9.027748 -1.433097 -1.084484
v -9.027748 -2.866193 0.563954
v -8.301176 -1.433096 2.212392
v -7.486499 0.000000 2.212392
v -7.486499 -2.866193 2.212392
v -6.450948 -1.433096 2.212392
v -5.945250 0.000000 0.563954
v -5.945250 -2.866193 0.563954
v -5.945250 -1.433097 -1.084484
v -7.486499 -0.000000 -1.084484
v -7.486499 -2.866193 -1.084484
v -7.486499 -7.506783 0.563954
v -7.486499 2.268375 0.563954
v -7.486499 -1.433097 -1.084484
v -5.945250 -1.433096 0.563954
v -7.486499 -1.433096 2.212392
v -9.027748 -1.433096 0.563954
vt 0.625000 0.125000
vt 0.500000 0.250000
vt 0.500000 0.125000
vt 0.625000 0.625000
vt 0.500000 0.750000
vt 0.500000 0.625000
vt 0.625000 0.875000
vt 0.500000 1.000000
vt 0.500000 0.875000
vt 0.375000 0.625000
vt 0.250000 0.750000
vt 0.250000 0.625000
vt 0.875000 0.625000
vt 0.750000 0.750000
vt 0.750000 0.625000
vt 0.625000 0.750000
vt 0.750000 0.500000
vt 0.625000 0.500000
vt 0.875000 0.500000
vt 0.125000 0.750000
vt 0.125000 0.625000
vt 0.250000 0.500000
vt 0.125000 0.500000
vt 0.375000 1.000000
vt 0.375000 0.875000
vt 0.375000 0.750000
vt 0.500000 0.500000
vt 0.375000 0.500000
vt 0.500000 0.375000
vt 0.375000 0.375000
vt 0.375000 0.250000
vt 0.625000 0.250000
vt 0.375000 0.125000
vt 0.500000 0.000000
vt 0.375000 0.000000
vt 0.625000 0.000000
vt 0.625000 0.375000
vt 0.625000 1.000000
vt 0.875000 0.750000
vn -0.9151 0.0000 0.4033
vn 1.0000 0.0000 0.0000
vn 0.0000 -0.0000 -1.0000
vn 0.6543 0.4446 -0.6118
vn -0.7099 -0.2358 -0.6637
vn 0.9490 -0.3152 0.0000
vn 0.0000 -1.0000 0.0000
vn 0.0000 -0.3347 0.9423
vn -0.8271 0.5620 -0.0000
vn 0.0000 1.0000 -0.0000
vn 0.9430 -0.3328 0.0000
vn 0.0000 0.0000 1.0000
vn -1.0000 -0.0000 0.0000
vn -0.8919 0.4522 0.0000
vn 0.0000 -0.3347 -0.9423
vn 0.0000 0.5879 -0.8090
vn -0.6543 0.4446 0.6118
vn 0.8271 0.5620 -0.0000
vn 0.9560 0.0000 0.2933
vn -0.8301 -0.4208 0.3659
vn 0.0000 0.5879 0.8090
vn 0.9059 0.3197 0.2779
vn -0.9490 -0.3152 0.0000
vn 0.7099 -0.2358 0.6637
usemtl Green
s off
f 37/40/31 38/41/31 52/42/31
f 43/43/32 44/44/32 50/45/32
f 46/46/33 36/47/33 49/48/33
f 42/49/34 45/50/34 48/51/34
f 37/52/35 46/53/35 47/54/35
f 47/54/36 32/55/36 43/43/36
f 40/56/37 43/43/37 34/57/37
f 30/58/38 47/54/38 40/56/38
f 48/51/39 27/59/39 35/60/39
f 39/61/40 35/60/40 29/62/40
f 49/48/33 27/63/33 45/64/33
f 44/44/33 45/64/33 31/65/33
f 32/55/33 49/48/33 44/44/33
f 50/45/32 31/65/32 42/49/32
f 41/66/41 42/49/41 33/67/41
f 51/68/42 33/67/42 39/69/42
f 38/41/42 39/69/42 29/70/42
f 30/71/42 51/68/42 38/41/42
f 52/42/43 29/70/43 35/72/43
f 36/73/43 35/72/43 27/74/43
f 28/75/43 52/42/43 36/73/43
f 37/40/44 30/71/44 38/41/44
f 40/76/42 34/57/42 41/66/42
f 43/43/32 32/55/32 44/44/32
f 46/46/33 28/77/33 36/47/33
f 37/52/37 28/78/37 46/53/37
f 47/54/45 46/53/45 32/55/45
f 48/51/46 45/50/46 27/59/46
f 39/61/47 48/51/47 35/60/47
f 33/67/48 42/49/48 48/51/48
f 49/48/33 36/47/33 27/63/33
f 44/44/33 49/48/33 45/64/33
f 32/55/33 46/46/33 49/48/33
f 41/66/49 50/45/49 42/49/49
f 34/57/32 43/43/32 50/45/32
f 51/68/42 41/66/42 33/67/42
f 38/41/42 51/68/42 39/69/42
f 30/71/42 40/76/42 51/68/42
f 52/42/50 38/41/50 29/70/50
f 36/73/43 52/42/43 35/72/43
f 28/75/43 37/40/43 52/42/43
usemtl Red
f 33/67/51 48/51/51 39/61/51
f 34/57/52 50/45/52 41/66/52
f 30/58/53 37/52/53 47/54/53
f 50/45/32 44/44/32 31/65/32
usemtl Blue
f 40/76/42 41/66/42 51/68/42
f 42/49/40 31/65/40 45/50/40
f 40/56/54 47/54/54 43/43/54
